<?xml version="1.0" encoding="UTF-8"?>
<svg width="183px" height="201px" viewBox="0 0 183 201" version="1.1" xmlns="http://www.w3.org/2000/svg" xmlns:xlink="http://www.w3.org/1999/xlink">
    <title>Group</title>
    <g id="Page-1" stroke="none" stroke-width="1" fill="none" fill-rule="evenodd">
        <g id="Desktop-Copy-2" transform="translate(-128, -67)" fill="#184E51">
            <g id="Group" transform="translate(128, 67)">
                <g id="Group-25" transform="translate(-0, 0)">
                    <path d="M96.7849762,3.84142856 L96.5060906,3.96679784 C96.2215134,4.09216711 93.7172345,5.22618919 93.0228662,6.31462245 C92.3228064,7.42015151 92.664299,9.899044 92.738289,10.3834253 L92.7724383,10.6113694 L94.707563,12.0702119 L98.7314839,5.14071014 L96.7849762,3.84142856 Z" id="Fill-1"></path>
                    <path d="M177.353322,45.9706338 C174.746596,44.2781485 108.024636,10.9242228 100.346744,7.08906265 L99.897112,6.86111851 L98.9580074,8.3370568 L98.9523158,8.3370568 L97.9961366,9.8471867 L97.392833,10.7988535 L97.3814499,10.7931549 L96.0211711,12.9073367 L96.2943652,13.2264585 C96.8805941,13.6994426 153.169956,57.9035093 159.999807,62.7131306 L159.999807,62.7188292 L160.375449,62.9524719 L160.529121,62.9068831 C160.534812,62.9125817 160.56327,62.9125817 160.568962,62.9182803 C161.690196,61.8811345 162.948027,60.7186194 163.887131,59.8353359 C159.339588,56.3306948 131.68438,35.980982 113.448676,22.5892639 C130.705435,34.0035666 157.267867,51.9199757 161.206414,54.3475808 L161.257638,54.3931696 C161.934932,53.8688981 163.113081,53.0312034 163.904206,52.4727403 C163.852982,52.404357 163.80745,52.3359738 163.73346,52.2675905 C163.141539,51.714826 141.303088,37.2745649 123.488558,25.8602623 C139.117536,35.2002733 158.184205,46.9963824 163.295211,50.0166422 C163.875748,49.5493567 165.122196,48.6603746 165.998694,48.0392268 C165.981619,48.0164324 165.970236,47.9993366 165.941778,47.9765422 C165.224644,47.3724902 137.996302,31.0288956 118.838567,19.8881259 C139.13461,30.7553626 168.537122,46.4436178 174.507551,49.4809735 L177.353322,45.9706338 Z" id="Fill-3"></path>
                    <path d="M91.7058431,190.051273 L91.6603108,189.829028 L89.6682707,188.484157 L85.8833945,195.379467 L87.8925092,196.570476 L88.1713948,196.433709 C88.4502805,196.302641 90.9204102,195.100236 91.5749376,194.017501 C92.2408482,192.911972 91.8025994,190.518559 91.7058431,190.051273" id="Fill-5"></path>
                    <path d="M85.9186821,192.847578 L86.7211897,191.519803 L86.7154981,191.519803 L87.028533,190.989833 L87.0342245,190.995532 L88.3091302,188.887049 L87.8936475,188.590721 C87.2675778,188.14623 28.7186737,147.486695 21.8034488,142.979099 L21.8034488,142.973401 L21.6611603,142.842333 C20.5399263,143.440686 18.6901748,144.420846 17.3868114,145.087583 C17.4380353,145.201555 17.5063338,145.309828 17.6315477,145.4238 C18.388523,146.11903 50.2896222,166.799262 70.921466,180.390431 C53.4370455,170.121548 23.9719268,152.718013 19.2593291,150.11945 C18.4055976,150.791885 17.1534581,151.720757 16.5672292,152.153851 C16.5786123,152.15955 16.5843038,152.170947 16.5956869,152.182344 C17.204682,152.68952 41.2514517,166.582715 59.3562503,176.857297 C43.7215814,168.622815 22.7653196,157.311087 17.341279,154.495977 C16.5672292,155.111426 15.3549305,156.011805 14.6662538,156.518981 C16.7891994,157.772674 46.7380993,173.557805 65.9242911,183.387896 C45.3038304,173.711668 13.966194,158.484999 9.01455146,156.31953 L6.17447145,159.322694 C6.23707842,159.522145 6.36798391,159.732993 6.6297949,159.932445 C7.90470055,160.867016 76.5219444,191.360242 84.2112191,194.711021 L84.6722341,194.910472 L85.9243736,192.847578 L85.9186821,192.847578 Z" id="Fill-7"></path>
                    <path d="M177.890035,55.7950261 L177.645298,55.6126707 C177.400562,55.4246168 175.220701,53.8005149 173.877497,53.7378302 C172.579825,53.7378302 170.616243,55.3448364 170.394273,55.5328903 L170.217835,55.6753554 L169.938949,58.1029604 L177.753438,58.1542479 L177.890035,55.7950261 Z" id="Fill-9"></path>
                    <path d="M177.335109,60.1157072 L177.192821,59.6142301 L175.93499,59.557244 L175.93499,59.528751 L173.53885,59.4204775 L173.584382,59.6769147 L171.837079,59.830777 L171.848462,59.830777 L170.317437,59.5116552 L170.249138,59.8991602 C170.129616,60.7368549 167.500123,81.3316077 165.041376,100.769544 C161.233734,130.892362 160.288938,138.28345 160.152341,140.232373 L160.129574,140.277961 L164.221794,142.745457 C164.233177,142.716964 164.24456,142.694169 164.255943,142.665676 C164.512063,141.685516 168.205874,105.049195 170.647546,80.6534739 C170.340203,86.2722968 170.010093,92.4609802 169.685675,98.4787054 C168.211566,126.134028 167.824541,134.585057 167.813158,136.625157 C168.604282,136.995566 169.92472,137.6737 170.767069,138.112492 C170.784143,138.061205 170.801218,138.015616 170.818292,137.95863 C170.99473,137.149428 172.059049,110.422978 172.929855,88.8651614 C172.890014,92.1874472 172.844482,95.5781162 172.804641,98.9117992 C172.508681,123.296123 172.411925,133.14331 172.434691,136.323131 C173.129059,136.619458 174.734074,137.445756 175.701636,137.947233 C175.730094,137.878849 175.775627,137.821863 175.78701,137.742083 C175.923607,136.910087 176.026054,111.19229 176.08297,89.9820877 C177.044841,112.708118 178.291289,140.899109 178.718154,146.141824 C179.839388,146.244399 181.581001,146.398262 182.992503,146.483741 C183.225856,144.660187 177.938413,68.7775844 177.335109,60.1157072" id="Fill-11"></path>
                    <path d="M6.30196201,145.946932 L6.53531528,145.958329 C6.77436009,146.140685 8.89730567,147.58813 10.0982213,147.58813 L10.1722113,147.58813 C11.4072762,147.58813 13.2342615,146.032411 13.4391571,145.838659 L13.5985203,145.770275 L13.7977243,143.336972 L6.36456899,143.525026 L6.30196201,145.946932 Z" id="Fill-13"></path>
                    <path d="M16.7146401,57.2373426 C16.5154361,58.251694 14.6656846,86.3970963 13.1346595,110.0463 C13.2257242,107.470532 13.3224804,104.877667 13.4135451,102.318994 C14.4038736,74.4186319 14.6144607,64.531555 14.6030777,62.3660857 C13.863177,62.0298681 12.5768883,61.3688301 11.7345399,60.9300376 C11.7288484,60.9585306 11.7174653,60.9870236 11.7117737,61.0212152 C11.5410275,61.9785806 10.7669776,99.6178562 10.2376641,122.680104 C10.1295248,116.309066 10.0043108,109.020552 9.88478841,101.965681 C9.42946496,75.7862967 9.21887786,65.0501279 9.105047,62.2692094 C8.03503689,61.7392393 6.68614117,61.0326125 6.3332655,60.8445585 C6.24789235,61.0041194 6.17390229,61.1807761 6.15113612,61.3973231 C6.02023063,62.4173731 7.11869845,100.318784 7.80737517,123.232869 C6.21374309,100.392866 4.71686725,62.4629619 4.07941443,56.5478116 C2.96956352,56.5022227 1.26779212,55.2542286 0.0156526386,55.1744481 C0.0156526386,55.191544 0.00996109552,55.2029412 0.0042695524,55.220037 C-0.183551371,56.8441389 5.88363359,133.108548 6.70890735,141.542482 L6.75443969,142.049657 L8.37652948,142.089547 L8.88307682,142.100945 L9.03674848,142.100945 L10.1238332,142.129438 L11.9337439,142.169328 L13.3964705,142.20352 L13.4533859,141.673549 C13.5444506,140.824457 15.4340429,119.728228 17.1984213,99.8799919 C19.9360536,69.1246293 20.6133472,61.528391 20.6873372,59.5509756 L20.7328696,59.3173328 C19.7880734,58.8272529 18.0578443,57.9325722 16.7146401,57.2373426" id="Fill-15"></path>
                    <path d="M173.891157,147.900983 C173.27647,146.744167 170.942937,145.83239 170.481922,145.655733 L170.271335,145.575953 L168.028867,146.550414 L172.069863,153.46282 L174.175734,152.397181 L174.209883,152.089457 C174.238341,151.781732 174.49446,149.040704 173.891157,147.900983" id="Fill-17"></path>
                    <path d="M169.570706,152.789815 L168.506388,150.783907 L168.210427,150.231142 L167.897393,149.644186 L167.772179,149.404845 L167.032278,148.014385 L166.554188,148.202439 C165.780138,148.515863 146.741927,156.265963 127.937068,163.936283 C118.517564,167.777142 109.149284,171.600905 102.131612,174.473001 C98.6199297,175.909049 95.7001681,177.105756 93.6569041,177.943451 C92.3478492,178.484818 91.5168839,178.826734 90.9875704,179.071774 L91.9152919,185.277553 C91.9494412,185.266156 91.9778989,185.271855 92.0120481,185.254759 C104.288707,179.818291 107.259692,178.188491 110.407115,176.467512 C114.926201,174.000017 120.003057,171.224797 153.600236,156.573688 C147.544434,159.668029 140.168194,163.434806 132.905785,167.155994 C124.5506,171.435645 116.235256,175.698201 110.014399,178.895117 C104.362697,181.801405 99.3769049,184.223312 98.1247654,184.941336 C98.4833327,185.761934 98.9614223,186.941545 99.3370641,187.881815 C104.231791,185.41432 126.17269,174.022811 142.979817,165.13299 C140.071438,166.774188 137.100453,168.460974 134.175,170.119268 C125.945028,174.780726 117.766281,179.425087 111.64218,182.906934 C106.269364,185.967084 101.317721,188.508661 100.037124,189.306466 C100.35585,190.235338 100.777025,191.585907 101.016069,192.378013 C103.23008,191.238292 126.46865,178.000437 144.243339,167.611883 C140.338941,170.045186 136.275179,172.581065 132.29679,175.065656 C123.423675,180.604698 114.5904,186.138042 107.982518,190.286626 C100.879472,194.742933 98.2272132,196.424021 97.2596509,197.153443 L99.1492432,201 C99.2289248,200.982904 99.3029149,200.988603 99.3769049,200.96011 C100.873781,200.384551 162.900218,159.303319 169.963423,154.619067 L170.390288,154.334137 L169.570706,152.789815 Z" id="Fill-19"></path>
                    <path d="M8.31392251,46.5159901 L8.2740817,46.8180161 C8.22854936,47.1428365 7.84721597,50.0035354 8.39929565,51.2173379 C8.96844996,52.4824279 11.4271966,53.6050528 11.7060822,53.7247234 L11.9280524,53.8272983 L14.1932865,52.9098231 L10.4767089,45.4902415 L8.31392251,46.5159901 Z" id="Fill-21"></path>
                    <path d="M91.9187068,18.0702714 C87.8037212,19.614593 52.8234972,34.1232373 31.1273348,43.1327293 C36.892868,40.363208 43.6031973,37.1377985 50.2224619,33.9465806 C58.7882343,29.8207917 67.3027828,25.7120986 73.6773111,22.6291542 C79.7615707,19.6829762 84.753054,17.2268781 85.9482781,16.5601415 C85.7661487,15.5913789 85.5441785,14.2294127 85.3905069,13.2264585 C81.8503671,14.8391633 56.4148609,27.5014601 37.7409079,36.8129781 C45.8968892,32.430752 54.980592,27.5413503 62.9146031,23.2730964 C71.810485,18.4919681 81.440576,13.391718 83.9334718,12.0525462 C83.8253325,11.0324962 83.7001186,9.47107888 83.6375116,8.62768557 C83.5464469,8.63908278 83.4553822,8.63908278 83.3643175,8.6732744 C82.5276607,8.95820457 57.0067813,22.9539746 37.8433557,33.5761713 C42.1689284,31.0117998 46.7107798,28.3163604 51.1388004,25.677907 C60.262344,20.2528365 69.3460468,14.8448619 76.1417493,10.7817577 C83.1138896,6.61607857 85.9141288,4.94068916 87.0239798,4.1656791 C86.4377508,2.81511009 85.7832234,1.31637739 85.1685367,0 C83.1708051,0.849091909 19.7840894,40.9330683 12.5330634,45.5147455 L12.1175808,45.7825799 L13.0794516,47.9138575 L13.8364268,49.5835483 L14.1210039,50.2103947 L15.179631,52.5525207 L15.6747952,52.3701654 C16.4829943,52.0681394 36.2781813,44.5003941 54.656174,37.4569203 C64.161051,33.8155127 73.6147042,30.1912009 80.6949838,27.4672685 C84.2351236,26.1053023 87.1776514,24.9712802 89.23799,24.1677771 C90.8259306,23.5580265 91.7195028,23.2104117 92.2260502,22.9710704 L91.9187068,18.0702714 Z" id="Fill-23"></path>
                </g>
                <polygon id="Fill-26" points="54.2904123 111.091421 54.2904123 134 47 134 47 66 54.2904123 66 54.2904123 98.2587904 62.7095877 86.4838256 62.7095877 66 70 66 70 88.6947961 58.8171009 104.559775 70 120.537271 70 134 62.7095877 134 62.7095877 122.872011"></polygon>
                <polygon id="Fill-27" points="76 134 84 134 84 66 76 66"></polygon>
                <path d="M113,123.270561 C113,129.10508 107.721407,134 101.435982,134 L90,134 L90,66 L101.435982,66 C107.721407,66 113,70.7823929 113,76.6112858 L113,123.270561 Z M101.435982,72.7628661 L97.2864372,72.7628661 L97.2864372,127.237134 L101.435982,127.237134 C103.571862,127.237134 105.707743,125.256661 105.707743,123.270561 L105.707743,76.6112858 C105.707743,74.7433394 103.571862,72.7628661 101.435982,72.7628661 L101.435982,72.7628661 Z" id="Fill-28"></path>
                <polygon id="Fill-30" points="126.62217 99.8115331 126.62217 127.232068 137 127.232068 137 134 119 134 119 66 137 66 137 72.7623066 126.62217 72.7623066 126.62217 92.931083 137 92.931083 137 99.8115331"></polygon>
            </g>
        </g>
    </g>
</svg>